:FULLY-SPECIFIED
:FORCE-ALL-JOINTS-BE-3DOF
:DEGREES
2344
root 1.41746 14.3458 -18.833 977.075 -62.6231 110.556
lfemur -20.7108 -1.47747 2.78694
ltibia 34.1356 0 0
lfoot -10.0977 18.8097 0
ltoes -34.2252 0 0
rfemur -64.602 -7.59291 10.4358
rtibia 77.2323 0 0
rfoot -14.7319 -11.5411 0
rtoes 0.836617 0 0
lowerback 20.1158 2.35129 -2.97826
upperback 0.237352 2.39086 0.199721
thorax -11.2016 1.23686 1.22736
lowerneck -5.35313 -1.54943 -4.2672
upperneck 3.44814 -1.77129 -0.163363
head 2.3042 -0.967369 0.644617
lclavicle 1.12739e-14 -6.92907e-15 0
lhumerus -25.3422 -26.8457 85.1084
lradius 104.108 0 0
lwrist 58.0769 0 0
lhand -20.1183 400.177 0
lfingers 7.12502 0 0
lthumb 6.22532 -649.944 0
rclavicle 1.12739e-14 -6.92907e-15 0
rhumerus 42.3612 13.6902 -44.4561
rradius 52.4994 0 0
rwrist 4.31677 0 0
rhand -7.15116 -400.647 0
rfingers 7.12502 0 0
rthumb 18.724 290.252 0
2345
root 1.53188 14.4046 -18.9858 982.611 -64.9973 105.396
lfemur -23.0259 -1.50303 3.22522
ltibia 34.2036 0 0
lfoot -9.41897 17.7102 0
ltoes -33.0108 0 0
rfemur -63.9978 -6.66355 10.2162
rtibia 77.0289 0 0
rfoot -15.2599 -12.0149 0
rtoes 0.558575 0 0
lowerback 20.2715 2.29429 -2.71555
upperback 0.235218 2.37699 0.243213
thorax -11.2809 1.21899 1.1253
lowerneck -5.45548 -1.12447 -3.93992
upperneck 3.53075 -1.20394 -0.537718
head 2.32086 -0.691271 0.487889
lclavicle 8.12176e-15 -5.98247e-15 0
lhumerus -22.8652 -27.6629 84.1284
lradius 104.662 0 0
lwrist 57.7807 0 0
lhand -20.3083 399.922 0
lfingers 7.12502 0 0
lthumb 6.04193 -650.193 0
rclavicle 8.12176e-15 -5.98247e-15 0
rhumerus 41.5377 14.5331 -44.139
rradius 53.5933 0 0
rwrist 3.65333 0 0
rhand -6.90529 -400.836 0
rfingers 7.12502 0 0
rthumb 18.9605 290.086 0
2346
root 1.64629 14.4633 -19.1386 988.147 -67.3716 100.236
lfemur -25.3411 -1.52858 3.6635
ltibia 34.2715 0 0
lfoot -8.74021 16.6107 0
ltoes -31.7965 0 0
rfemur -63.3936 -5.7342 9.99659
rtibia 76.8255 0 0
rfoot -15.7878 -12.4887 0
rtoes 0.280533 0 0
lowerback 20.4273 2.23729 -2.45284
upperback 0.233084 2.36312 0.286706
thorax -11.3602 1.20111 1.02323
lowerneck -5.55784 -0.699507 -3.61264
upperneck 3.61335 -0.636587 -0.912073
head 2.33752 -0.415173 0.331161
lclavicle 4.9696e-15 -5.03588e-15 0
lhumerus -20.3882 -28.4801 83.1484
lradius 105.217 0 0
lwrist 57.4844 0 0
lhand -20.4982 399.668 0
lfingers 7.12502 0 0
lthumb 5.85854 -650.442 0
rclavicle 4.9696e-15 -5.03588e-15 0
rhumerus 40.7143 15.376 -43.8218
rradius 54.6872 0 0
rwrist 2.98989 0 0
rhand -6.65942 -401.025 0
rfingers 7.12502 0 0
rthumb 19.1971 289.92 0
2347
root 1.76071 14.522 -19.2915 993.683 -69.7458 95.0757
lfemur -27.6563 -1.55414 4.10178
ltibia 34.3395 0 0
lfoot -8.06144 15.5113 0
ltoes -30.5822 0 0
rfemur -62.7894 -4.80484 9.77699
rtibia 76.622 0 0
rfoot -16.3158 -12.9625 0
rtoes 0.00249143 0 0
lowerback 20.5831 2.18029 -2.19012
upperback 0.23095 2.34926 0.330199
thorax -11.4395 1.18324 0.921164
lowerneck -5.66019 -0.274544 -3.28536
upperneck 3.69595 -0.0692329 -1.28643
head 2.35418 -0.139076 0.174434
lclavicle 1.81744e-15 -4.08929e-15 0
lhumerus -17.9112 -29.2972 82.1684
lradius 105.771 0 0
lwrist 57.1881 0 0
lhand -20.6882 399.413 0
lfingers 7.12502 0 0
lthumb 5.67515 -650.691 0
rclavicle 1.81744e-15 -4.08929e-15 0
rhumerus 39.8908 16.2189 -43.5047
rradius 55.781 0 0
rwrist 2.32646 0 0
rhand -6.41355 -401.213 0
rfingers 7.12502 0 0
rthumb 19.4336 289.753 0
